<svg id="Layer_1" data-name="Layer 1" xmlns="http://www.w3.org/2000/svg" viewBox="0 0 30.25 7.29"><defs><style>.cls-1{fill:#0d0c22;}</style></defs><title>logo</title><path class="cls-1" d="M19.14,31.06a1.36,1.36,0,0,1,.24-.88,1,1,0,0,1,.79-.3V29a2.07,2.07,0,0,0-1.6.6A2.58,2.58,0,0,0,18,31.42a8.88,8.88,0,0,0,.26,1.93h1.91V31.54H19.14Z" transform="translate(-15.19 -28.15)"/><path class="cls-1" d="M16.3,31.06a1.36,1.36,0,0,1,.24-.88,1,1,0,0,1,.79-.3V29a2.07,2.07,0,0,0-1.6.6,2.58,2.58,0,0,0-.54,1.78,8.8,8.8,0,0,0,.25,1.93h1.91V31.54H16.3Z" transform="translate(-15.19 -28.15)"/><path class="cls-1" d="M26.58,32.28a2.92,2.92,0,0,0,0-2.68,2.39,2.39,0,0,0-.91-.93,2.49,2.49,0,0,0-1.29-.34,2.45,2.45,0,0,0-1.3.34,2.42,2.42,0,0,0-.92.93,3,3,0,0,0,0,2.72,2.46,2.46,0,0,0,2.22,1.27,2.61,2.61,0,0,0,.69-.08l.92,1h1l-1.28-1.29A2.38,2.38,0,0,0,26.58,32.28Zm-1.35.31a1.65,1.65,0,0,1-.86.23,1.76,1.76,0,0,1-.89-.23,1.64,1.64,0,0,1-.6-.65,2.39,2.39,0,0,1,0-2,1.64,1.64,0,0,1,.6-.65,1.76,1.76,0,0,1,.89-.23,1.65,1.65,0,0,1,.86.23,1.51,1.51,0,0,1,.6.65,2.29,2.29,0,0,1,0,2A1.51,1.51,0,0,1,25.23,32.59Z" transform="translate(-15.19 -28.15)"/><path class="cls-1" d="M30.62,29.72a2.42,2.42,0,0,0-2.1,0,1.85,1.85,0,0,0-.72.72,2.12,2.12,0,0,0-.27,1.09,2.15,2.15,0,0,0,.27,1.09,1.78,1.78,0,0,0,.72.72,2.33,2.33,0,0,0,2.1,0,1.76,1.76,0,0,0,.72-.71,2.16,2.16,0,0,0,.27-1.1,2.12,2.12,0,0,0-.27-1.09A1.78,1.78,0,0,0,30.62,29.72Zm0,2.55a1,1,0,0,1-.43.44,1.2,1.2,0,0,1-.59.15,1.18,1.18,0,0,1-.59-.15,1,1,0,0,1-.43-.44,1.7,1.7,0,0,1,0-1.48,1,1,0,0,1,.43-.45,1.17,1.17,0,0,1,.59-.14,1.2,1.2,0,0,1,.59.14,1.1,1.1,0,0,1,.43.45,1.79,1.79,0,0,1,0,1.48Z" transform="translate(-15.19 -28.15)"/><path class="cls-1" d="M35.27,31.65a1.3,1.3,0,0,1-.3.93,1,1,0,0,1-.8.32,1,1,0,0,1-.75-.29,1.17,1.17,0,0,1-.28-.84V29.53h-.83v2.32a1.82,1.82,0,0,0,.42,1.29,1.47,1.47,0,0,0,1.12.45,1.59,1.59,0,0,0,.88-.24,1.29,1.29,0,0,0,.54-.69v.88h.83v-4h-.83Z" transform="translate(-15.19 -28.15)"/><path class="cls-1" d="M38.27,32.68a.63.63,0,0,1-.13-.47v-2h1v-.7h-1v-1H37.3v1h-.57v.7h.57v2a1.37,1.37,0,0,0,.33,1,1.42,1.42,0,0,0,1,.31h.5v-.72h-.4A.58.58,0,0,1,38.27,32.68Z" transform="translate(-15.19 -28.15)"/><rect class="cls-1" x="24.7" width="0.83" height="5.38"/><polygon class="cls-1" points="29.33 1.38 28.21 4.32 27.01 1.38 26.08 1.38 27.77 5.29 26.9 7.29 27.83 7.29 30.25 1.38 29.33 1.38"/></svg>