<svg id="Layer_1" data-name="Layer 1" xmlns="http://www.w3.org/2000/svg" viewBox="0 0 26.45 30.77"><defs><style>.cls-1{fill:#10154c;}</style></defs><g id="Layer_2" data-name="Layer 2"><g id="Layer_1-2" data-name="Layer 1-2"><path class="cls-1" d="M5.58,15.62l4.28-4.31v16a3.4,3.4,0,0,0,3,3.44,3.31,3.31,0,0,0,3.62-3c0-.12,0-.23,0-.34V11.31l4.28,4.31a3.3,3.3,0,0,0,4.68,0l0,0h0a3.33,3.33,0,0,0,0-4.7h0L15.58,1a3.33,3.33,0,0,0-4.69,0h0L1.05,10.82a3.41,3.41,0,0,0-.32,4.56,3.31,3.31,0,0,0,4.67.4Z"/></g></g></svg>