<svg xmlns="http://www.w3.org/2000/svg" viewBox="0 0 272 425"><defs><style>.cls-1{fill:#e5e5e5;}.cls-2{fill:#1744f4;}.cls-3{fill:#f42a55;}.cls-4{fill:#091d68;}</style></defs><title>geomatric</title><g id="BACKGROUND"><rect class="cls-1" x="-76.5" y="76.5" width="425" height="272" transform="translate(348.5 76.5) rotate(90)"/></g><g id="OBJECTS"><rect class="cls-2" x="68" width="68" height="70.83"/><rect class="cls-3" x="202.58" y="72.25" width="70.83" height="68" transform="translate(344.25 -131.75) rotate(90)"/><rect class="cls-2" x="202.58" y="143.08" width="70.83" height="68" transform="translate(415.08 -60.92) rotate(90)"/><rect class="cls-3" x="202.58" y="213.92" width="70.83" height="68" transform="translate(485.92 9.92) rotate(90)"/><rect class="cls-4" x="202.58" y="284.75" width="70.83" height="68" transform="translate(556.75 80.75) rotate(90)"/><rect class="cls-2" x="202.58" y="355.58" width="70.83" height="68" transform="translate(627.58 151.58) rotate(90)"/><rect class="cls-4" x="134.58" y="1.42" width="70.83" height="68" transform="translate(205.42 -134.58) rotate(90)"/><rect class="cls-3" x="134.58" y="72.25" width="70.83" height="68" transform="translate(276.25 -63.75) rotate(90)"/><rect class="cls-1" x="134.58" y="143.08" width="70.83" height="68" transform="translate(347.08 7.08) rotate(90)"/><path class="cls-3" d="M193.35,213.92h12.07a0,0,0,0,1,0,0v68a0,0,0,0,1,0,0H134.58a0,0,0,0,1,0,0v-9.24a58.76,58.76,0,0,1,58.76-58.76Z" transform="translate(417.92 77.92) rotate(90)"/><path class="cls-2" d="M134.58,284.75h12.07a58.76,58.76,0,0,1,58.76,58.76v9.24a0,0,0,0,1,0,0H134.58a0,0,0,0,1,0,0v-68A0,0,0,0,1,134.58,284.75Z" transform="translate(488.75 148.75) rotate(90)"/><path class="cls-3" d="M193.35,355.58h12.07a0,0,0,0,1,0,0v68a0,0,0,0,1,0,0H134.58a0,0,0,0,1,0,0v-9.24A58.76,58.76,0,0,1,193.35,355.58Z" transform="translate(559.58 219.58) rotate(90)"/><path class="cls-1" d="M66.58,1.42h70.83a0,0,0,0,1,0,0v9.24A58.76,58.76,0,0,1,78.65,69.42H66.58a0,0,0,0,1,0,0v-68A0,0,0,0,1,66.58,1.42Z" transform="translate(137.42 -66.58) rotate(90)"/><rect class="cls-2" x="66.58" y="72.25" width="70.83" height="68" transform="translate(208.25 4.25) rotate(90)"/><path class="cls-2" d="M66.58,213.92H78.65a58.76,58.76,0,0,1,58.76,58.76v9.24a0,0,0,0,1,0,0H66.58a0,0,0,0,1,0,0v-68A0,0,0,0,1,66.58,213.92Z" transform="translate(349.92 145.92) rotate(90)"/><path class="cls-4" d="M125.35,284.75h12.07a0,0,0,0,1,0,0v68a0,0,0,0,1,0,0H66.58a0,0,0,0,1,0,0v-9.24A58.76,58.76,0,0,1,125.35,284.75Z" transform="translate(420.75 216.75) rotate(90)"/><rect class="cls-3" x="66.58" y="355.58" width="70.83" height="68" transform="translate(491.58 287.58) rotate(90)"/><rect class="cls-4" width="68" height="70.83"/><rect class="cls-4" y="70.83" width="68" height="70.83"/><rect class="cls-4" x="-1.42" y="143.08" width="70.83" height="68" transform="translate(211.08 143.08) rotate(90)"/><rect class="cls-3" x="-1.42" y="213.92" width="70.83" height="68" transform="translate(281.92 213.92) rotate(90)"/><path class="cls-4" d="M57.35,284.75H69.42a0,0,0,0,1,0,0v68a0,0,0,0,1,0,0H-1.42a0,0,0,0,1,0,0v-9.24A58.76,58.76,0,0,1,57.35,284.75Z" transform="translate(352.75 284.75) rotate(90)"/><rect class="cls-1" x="-1.42" y="355.58" width="70.83" height="68" transform="translate(423.58 355.58) rotate(90)"/><path class="cls-2" d="M-1.42,355.58H69.42a0,0,0,0,1,0,0v9.24a58.76,58.76,0,0,1-58.76,58.76H-1.42a0,0,0,0,1,0,0v-68A0,0,0,0,1-1.42,355.58Z" transform="translate(423.58 355.58) rotate(90)"/><ellipse class="cls-1" cx="163.99" cy="254.22" rx="10.51" ry="10.94"/><path class="cls-2" d="M125.86,294.05a11,11,0,0,1,0-21.89Z"/><ellipse class="cls-4" cx="163.99" cy="312.21" rx="10.51" ry="10.94"/><ellipse class="cls-2" cx="169.95" cy="105.75" rx="17.71" ry="18.45"/><ellipse class="cls-1" cx="240.35" cy="179.08" rx="17.71" ry="18.45"/><ellipse class="cls-4" cx="240.35" cy="179.08" rx="7.38" ry="7.69"/><path class="cls-2" d="M170,197.3c-9.78,0-17.71-8.26-17.71-18.44s7.93-18.45,17.71-18.45Z"/><polygon class="cls-3" points="136 141.67 0 141.67 0 0 136 141.67"/><path class="cls-2" d="M68,141.67h0C30.44,141.67,0,110,0,70.83H68Z"/><polygon class="cls-1" points="68 283.33 0 212.5 68 141.67 68 283.33"/><path class="cls-1" d="M136,0c15.23,12.83-1.05,26.54,14.17,39.36s31.51-.88,46.73,11.94-1.05,26.54,14.17,39.36,31.51-.88,46.73,11.94S256.75,129.14,272,142V0Z"/><path class="cls-1" d="M121.8,385.64c-15.22-12.83-31.5.88-46.73-11.94-5.13-4.33-6.68-8.75-7.07-13.21V425h68C120.75,412.17,137,398.46,121.8,385.64Z"/><path class="cls-2" d="M261.35,1.42h12.07a0,0,0,0,1,0,0v68a0,0,0,0,1,0,0H202.58a0,0,0,0,1,0,0V60.18A58.76,58.76,0,0,1,261.35,1.42Z" transform="translate(273.42 -202.58) rotate(90)"/><polygon class="cls-3" points="136 212.5 136 212.5 136 141.67 102 177.08 136 212.5"/><polygon class="cls-4" points="68 212.5 136 212.5 102 177.08 68 212.5"/><polygon class="cls-3" points="102 177.08 68 141.67 68 212.5 102 177.08"/><polygon class="cls-4" points="136 141.67 68 141.67 68 141.67 102 177.08 136 141.67"/><path class="cls-3" d="M68,354.17h0c0-19.56-15.22-35.42-34-35.42H0v35.42Z"/><path class="cls-2" d="M33.42,194.6c9.78,0,17.71,8.25,17.71,18.44s-7.93,18.45-17.71,18.45Z"/><polygon class="cls-4" points="272 283.33 204 212.5 204 283.33 272 283.33"/><path class="cls-1" d="M272,283.33h0c-37.56,0-68,31.72-68,70.84h0C241.56,354.17,272,322.45,272,283.33Z"/><path class="cls-1" d="M272,425h0c-37.56,0-68-31.71-68-70.83h0C241.56,354.17,272,385.88,272,425Z"/><polygon class="cls-1" points="68 141.67 0 70.83 68 70.83 68 141.67"/><path class="cls-4" d="M68,141.67,0,70.83C37.55,70.83,68,102.55,68,141.67Z"/><ellipse class="cls-2" cx="108.83" cy="397.62" rx="7.5" ry="7.82"/><path class="cls-2" d="M204,354.17c37.55,0,68-31.72,68-70.84h0l-68,70.84h0Z"/><path class="cls-3" d="M204,354.17c37.55,0,68,31.71,68,70.83h0l-68-70.83h0Z"/><path class="cls-3" d="M136,35.54c-18.84,0-34.12-15.91-34.12-35.54H136Z"/><path class="cls-1" d="M30.42,21.8l4.16-7.92,4.16,7.92a21.56,21.56,0,0,0,8.33,8.68l7.61,4.33-7.61,4.33a21.48,21.48,0,0,0-8.33,8.67l-4.16,7.93-4.16-7.93a21.39,21.39,0,0,0-8.32-8.67l-7.61-4.33,7.61-4.33A21.48,21.48,0,0,0,30.42,21.8Z"/><path class="cls-1" d="M272,375a34,34,0,0,0-13.23-13.78l-12.09-6.89,12.09-6.89A34,34,0,0,0,272,333.62"/></g></svg>