<svg id="Layer_1" data-name="Layer 1" xmlns="http://www.w3.org/2000/svg" viewBox="0 0 8 8"><defs><style>.cls-1{fill:#fff;}</style></defs><title>logo</title><path class="cls-1" d="M5.23,1a4,4,0,1,0,4,4A4,4,0,0,0,5.23,1ZM5,6.51H3.65a6.13,6.13,0,0,1-.18-1.35,1.77,1.77,0,0,1,.39-1.25A1.43,1.43,0,0,1,5,3.49v.59a.72.72,0,0,0-.56.2,1,1,0,0,0-.17.62v.34H5Zm2,0H5.64a6.05,6.05,0,0,1-.17-1.35,1.77,1.77,0,0,1,.38-1.25A1.45,1.45,0,0,1,7,3.49v.59a.7.7,0,0,0-.55.2,1,1,0,0,0-.17.62v.34H7Z" transform="translate(-1.23 -1)"/></svg>