<svg xmlns="http://www.w3.org/2000/svg" viewBox="0 0 15 20.29"><defs><style>.cls-1{fill:#000;fill-rule:evenodd;}</style></defs><g id="Layer_2" data-name="Layer 2"><g id="Layer_1-2" data-name="Layer 1"><path class="cls-1" d="M13.24,20.29H1.76A1.76,1.76,0,0,1,0,18.53V1.76A1.76,1.76,0,0,1,1.76,0h8.39a.44.44,0,0,1,.34.17l4.34,4.34a.44.44,0,0,1,.17.34h0V18.53A1.76,1.76,0,0,1,13.24,20.29ZM10.59,1.49V4.41h2.92Zm3.53,3.8h-4a.43.43,0,0,1-.44-.44v-4h-8a.89.89,0,0,0-.88.88V18.53a.88.88,0,0,0,.88.88H13.24a.88.88,0,0,0,.88-.88ZM11.47,16.76H3.53a.44.44,0,0,1-.44-.44.44.44,0,0,1,.44-.44h7.94a.44.44,0,0,1,.44.44A.44.44,0,0,1,11.47,16.76Zm0-3.52H3.53a.45.45,0,0,1,0-.89h7.94a.45.45,0,0,1,0,.89Zm0-3.53H3.53a.45.45,0,0,1,0-.89h7.94a.45.45,0,0,1,0,.89Z"/></g></g></svg>