<?xml version="1.0" encoding="utf-8"?>
<!-- Generator: Adobe Illustrator 22.1.0, SVG Export Plug-In . SVG Version: 6.00 Build 0)  -->
<svg version="1.1" id="Layer_1" xmlns="http://www.w3.org/2000/svg" xmlns:xlink="http://www.w3.org/1999/xlink" x="0px" y="0px"
	 viewBox="0 0 576 515" style="enable-background:new 0 0 576 515;" xml:space="preserve">
<title>eye2</title>
<path d="M572.5,243.9C518.3,138.1,410.9,66.6,288,66.6S57.7,138.2,3.5,244c-4.6,9.2-4.6,20,0,29.2C57.7,379,165.1,450.5,288,450.5
	s230.3-71.6,284.5-177.4C577.2,264,577.2,253.1,572.5,243.9z M288,402.5c-79.5,0-143.9-64.5-143.9-144s64.5-143.9,144-143.9
	S432,179.2,432,258.7c0,79.4-64.4,143.8-143.9,143.9H288z M288,162.6c-8.6,0.1-17.1,1.4-25.3,3.8c15.7,21.3,11.1,51.2-10.2,66.9
	c-16.9,12.4-39.9,12.4-56.7,0c-13.9,51.1,16.3,103.7,67.3,117.6s103.7-16.3,117.6-67.3s-16.3-103.7-67.3-117.6
	C305.1,163.7,296.6,162.5,288,162.6z"/>
<path d="M575.9,413.5c-0.5-9.3-4.7-17.9-11.7-24.1l-0.6-0.5L57.6,74.8C50.7,69,42,66.1,32.9,66.6c-9.3,0.5-17.9,4.7-24.1,11.7
	c-6.2,7-9.3,16-8.8,25.3c0.5,9.3,4.7,17.9,11.7,24.1l0.6,0.5l506.1,314c6.3,5.3,14.3,8.3,22.6,8.3c10,0,19.5-4.3,26.2-11.7
	C573.4,431.8,576.5,422.8,575.9,413.5z"/>
</svg>
