<svg id="Social_Icons" data-name="Social Icons" xmlns="http://www.w3.org/2000/svg" viewBox="0 0 4.17 4.26"><defs><style>.cls-1{fill:#fbbc05;}.cls-1,.cls-2,.cls-3,.cls-4{fill-rule:evenodd;}.cls-2{fill:#ea4335;}.cls-3{fill:#34a853;}.cls-4{fill:#4285f4;}</style></defs><path class="cls-1" d="M.87,2.13a1.23,1.23,0,0,1,.07-.39L.22,1.19A2.1,2.1,0,0,0,0,2.13a2.17,2.17,0,0,0,.22,1l.72-.55a1.34,1.34,0,0,1-.07-.4"/><path class="cls-2" d="M2.13.87a1.24,1.24,0,0,1,.79.28L3.54.53a2.13,2.13,0,0,0-3.32.66l.72.55A1.24,1.24,0,0,1,2.13.87"/><path class="cls-3" d="M2.13,3.39A1.24,1.24,0,0,1,.94,2.53l-.72.55A2.13,2.13,0,0,0,2.13,4.26a2,2,0,0,0,1.4-.53l-.69-.52a1.31,1.31,0,0,1-.71.18"/><path class="cls-4" d="M4.17,2.13a1.81,1.81,0,0,0,0-.39h-2v.83H3.28a1,1,0,0,1-.44.64l.69.52a2.11,2.11,0,0,0,.64-1.6"/></svg>