<svg id="Social_Icons" data-name="Social Icons" xmlns="http://www.w3.org/2000/svg" viewBox="0 0 5.25 4.26"><defs><style>.cls-1{fill:#1da1f2;}</style></defs><path class="cls-1" d="M1.65,4.26A3,3,0,0,0,4.71,1.2V1.06A2.22,2.22,0,0,0,5.25.5a2,2,0,0,1-.62.17A1.06,1.06,0,0,0,5.1.08a2.34,2.34,0,0,1-.68.26A1.07,1.07,0,0,0,3.63,0,1.08,1.08,0,0,0,2.56,1.08a1.94,1.94,0,0,0,0,.24A3,3,0,0,1,.37.2,1.07,1.07,0,0,0,.7,1.63,1.05,1.05,0,0,1,.21,1.5h0a1.08,1.08,0,0,0,.86,1.06,1.11,1.11,0,0,1-.48,0,1.06,1.06,0,0,0,1,.74A2.16,2.16,0,0,1,.26,3.8L0,3.78a3,3,0,0,0,1.65.48"/></svg>